<svg xmlns="http://www.w3.org/2000/svg" viewBox="0 0 1200 675" role="img" aria-labelledby="title desc">
  <title id="title">AOT cover</title>
  <desc id="desc">Abstract illustration for adversarial reinforcement learning and multimodal perceptual robustness.</desc>
  <defs>
    <linearGradient id="bg" x1="0%" y1="0%" x2="100%" y2="100%">
      <stop offset="0%" stop-color="#1f2937"/>
      <stop offset="100%" stop-color="#0f172a"/>
    </linearGradient>
    <linearGradient id="accent" x1="0%" y1="0%" x2="100%" y2="100%">
      <stop offset="0%" stop-color="#fb7185"/>
      <stop offset="100%" stop-color="#22d3ee"/>
    </linearGradient>
  </defs>
  <rect width="1200" height="675" fill="url(#bg)"/>
  <path d="M0 540c138-56 286-86 428-64 144 22 228 102 356 106 136 4 261-40 416-118v211H0Z" fill="#fff" fill-opacity=".06"/>
  <rect x="132" y="114" width="364" height="230" rx="28" fill="#ffffff" fill-opacity=".08"/>
  <rect x="174" y="154" width="280" height="150" rx="20" fill="#ffffff" fill-opacity=".1"/>
  <circle cx="314" cy="229" r="72" fill="none" stroke="#e2e8f0" stroke-opacity=".78" stroke-width="16"/>
  <path d="M314 173v112M258 229h112" stroke="#e2e8f0" stroke-linecap="round" stroke-opacity=".78" stroke-width="14"/>
  <path d="M574 170h470" stroke="#e2e8f0" stroke-linecap="round" stroke-opacity=".88" stroke-width="18"/>
  <path d="M574 238h408" stroke="#e2e8f0" stroke-linecap="round" stroke-opacity=".56" stroke-width="18"/>
  <path d="M574 306h322" stroke="#e2e8f0" stroke-linecap="round" stroke-opacity=".38" stroke-width="18"/>
  <path d="M244 456c52-34 116-59 186-57 77 2 143 34 202 81 56-43 118-73 191-74 74-1 141 27 199 67" fill="none" stroke="url(#accent)" stroke-linecap="round" stroke-linejoin="round" stroke-width="22"/>
  <circle cx="452" cy="476" r="22" fill="#fb7185"/>
  <circle cx="814" cy="466" r="22" fill="#22d3ee"/>
  <path d="M558 528h306" stroke="url(#accent)" stroke-linecap="round" stroke-width="16"/>
  <path d="M558 584h232" stroke="url(#accent)" stroke-linecap="round" stroke-opacity=".62" stroke-width="16"/>
</svg>
