<svg xmlns="http://www.w3.org/2000/svg" viewBox="0 0 1200 675" role="img" aria-labelledby="title desc">
  <title id="title">Forum cover</title>
  <desc id="desc">Abstract illustration for an invited talk at an AI governance and evaluation forum.</desc>
  <defs>
    <linearGradient id="bg" x1="0%" y1="0%" x2="100%" y2="100%">
      <stop offset="0%" stop-color="#0b1736"/>
      <stop offset="100%" stop-color="#1d4ed8"/>
    </linearGradient>
    <linearGradient id="accent" x1="0%" y1="0%" x2="100%" y2="100%">
      <stop offset="0%" stop-color="#fca5a5"/>
      <stop offset="100%" stop-color="#fef3c7"/>
    </linearGradient>
  </defs>
  <rect width="1200" height="675" fill="url(#bg)"/>
  <path d="M0 520c170-82 336-123 500-99 163 23 258 89 402 92 95 1 194-23 298-59v221H0Z" fill="#ffffff" fill-opacity="0.08"/>
  <circle cx="942" cy="140" r="96" fill="#ffffff" fill-opacity="0.07"/>
  <g stroke="#bfdbfe" stroke-opacity="0.75" stroke-width="3">
    <path d="M168 172h256v256H168z" fill="none"/>
    <path d="M552 140h490"/>
    <path d="M552 228h416"/>
    <path d="M552 316h332"/>
    <path d="M168 300h256"/>
    <path d="M296 172v256"/>
  </g>
  <g fill="url(#accent)">
    <circle cx="168" cy="172" r="12"/>
    <circle cx="424" cy="172" r="12"/>
    <circle cx="168" cy="428" r="12"/>
    <circle cx="424" cy="428" r="12"/>
    <circle cx="296" cy="300" r="18"/>
  </g>
  <g stroke="url(#accent)" stroke-width="14" stroke-linecap="round">
    <path d="M552 430h262"/>
    <path d="M552 484h346"/>
    <path d="M552 538h210"/>
  </g>
</svg>
