<svg xmlns="http://www.w3.org/2000/svg" viewBox="0 0 1200 675" role="img" aria-labelledby="title desc">
  <title id="title">IDMR cover</title>
  <desc id="desc">Abstract illustration for instance-driven multimodal retrieval and visual memory.</desc>
  <defs>
    <linearGradient id="bg" x1="0%" y1="0%" x2="100%" y2="100%">
      <stop offset="0%" stop-color="#111827"/>
      <stop offset="100%" stop-color="#0f766e"/>
    </linearGradient>
    <linearGradient id="accent" x1="0%" y1="0%" x2="100%" y2="100%">
      <stop offset="0%" stop-color="#c4b5fd"/>
      <stop offset="100%" stop-color="#67e8f9"/>
    </linearGradient>
  </defs>
  <rect width="1200" height="675" fill="url(#bg)"/>
  <circle cx="256" cy="232" r="110" fill="#fff" fill-opacity=".08"/>
  <circle cx="256" cy="232" r="70" fill="none" stroke="url(#accent)" stroke-width="18"/>
  <circle cx="256" cy="232" r="28" fill="#c4b5fd"/>
  <rect x="454" y="132" width="188" height="148" rx="20" fill="#ffffff" fill-opacity=".1"/>
  <rect x="704" y="132" width="188" height="148" rx="20" fill="#ffffff" fill-opacity=".1"/>
  <rect x="954" y="132" width="128" height="148" rx="20" fill="#ffffff" fill-opacity=".1"/>
  <path d="M364 232h70m28 0h70m28 0h70m28 0h70" stroke="#ccfbf1" stroke-linecap="round" stroke-width="12"/>
  <path d="M196 476c76-39 152-58 230-56 110 2 201 47 301 45 108-2 209-57 376-133V675H98Z" fill="#fff" fill-opacity=".08"/>
  <path d="M460 422h416" stroke="url(#accent)" stroke-linecap="round" stroke-width="18"/>
  <path d="M460 486h330" stroke="url(#accent)" stroke-linecap="round" stroke-opacity=".7" stroke-width="18"/>
  <path d="M460 550h248" stroke="url(#accent)" stroke-linecap="round" stroke-opacity=".42" stroke-width="18"/>
</svg>
