<svg xmlns="http://www.w3.org/2000/svg" viewBox="0 0 1600 900" fill="none">
  <defs>
    <linearGradient id="bg" x1="180" y1="120" x2="1420" y2="780" gradientUnits="userSpaceOnUse">
      <stop stop-color="#061A40"/>
      <stop offset="1" stop-color="#0B5FFF"/>
    </linearGradient>
    <linearGradient id="card" x1="280" y1="180" x2="1320" y2="720" gradientUnits="userSpaceOnUse">
      <stop stop-color="#0C255F" stop-opacity=".95"/>
      <stop offset="1" stop-color="#12388A" stop-opacity=".82"/>
    </linearGradient>
  </defs>
  <rect width="1600" height="900" rx="52" fill="url(#bg)"/>
  <circle cx="1320" cy="180" r="210" fill="#7CCBFF" fill-opacity=".14"/>
  <circle cx="260" cy="760" r="180" fill="#B7DCFF" fill-opacity=".1"/>
  <rect x="180" y="150" width="1240" height="600" rx="40" fill="url(#card)" stroke="#99D8FF" stroke-opacity=".28"/>
  <rect x="280" y="260" width="120" height="120" rx="24" fill="#A6E1FF"/>
  <rect x="440" y="260" width="120" height="120" rx="24" fill="#63B7FF"/>
  <rect x="600" y="260" width="120" height="120" rx="24" fill="#2F7DFF"/>
  <rect x="360" y="420" width="120" height="120" rx="24" fill="#63B7FF"/>
  <rect x="520" y="420" width="120" height="120" rx="24" fill="#A6E1FF"/>
  <rect x="680" y="420" width="120" height="120" rx="24" fill="#63B7FF"/>
  <path d="M400 320H440M560 320H600M480 380V420M640 380V420" stroke="#E7F6FF" stroke-width="22" stroke-linecap="round"/>
  <text x="880" y="365" fill="#F6FBFF" font-size="116" font-family="Verdana, Arial, sans-serif" font-weight="700" letter-spacing="8">SAFACTORY</text>
  <text x="884" y="455" fill="#B9DDFF" font-size="38" font-family="Verdana, Arial, sans-serif">Trustworthy agent infrastructure</text>
  <text x="884" y="532" fill="#E8F4FF" font-size="30" font-family="Verdana, Arial, sans-serif">Evaluation · Trajectories · RL Training</text>
</svg>
