<svg xmlns="http://www.w3.org/2000/svg" viewBox="0 0 1600 900" fill="none">
  <defs>
    <linearGradient id="bg" x1="140" y1="120" x2="1460" y2="780" gradientUnits="userSpaceOnUse">
      <stop stop-color="#2A0A14"/>
      <stop offset="1" stop-color="#B2274E"/>
    </linearGradient>
    <linearGradient id="track" x1="280" y1="220" x2="760" y2="620" gradientUnits="userSpaceOnUse">
      <stop stop-color="#FFE6F0"/>
      <stop offset="1" stop-color="#FF8BAC"/>
    </linearGradient>
  </defs>
  <rect width="1600" height="900" rx="52" fill="url(#bg)"/>
  <circle cx="1320" cy="170" r="220" fill="#FFD5E2" fill-opacity=".1"/>
  <rect x="180" y="150" width="1240" height="600" rx="40" fill="#360D1B" fill-opacity=".7" stroke="#FFB0C7" stroke-opacity=".22"/>
  <path d="M330 340H540C650 340 720 405 720 500V560" stroke="url(#track)" stroke-width="34" stroke-linecap="round" stroke-linejoin="round"/>
  <path d="M330 560H500C565 560 620 507 620 442V300" stroke="#FFB6C9" stroke-width="34" stroke-linecap="round" stroke-linejoin="round"/>
  <circle cx="330" cy="340" r="34" fill="#FFE9F1"/>
  <circle cx="330" cy="560" r="34" fill="#FFC0D3"/>
  <circle cx="620" cy="300" r="34" fill="#FFE9F1"/>
  <circle cx="720" cy="560" r="34" fill="#FFC0D3"/>
  <path d="M720 560L770 525M720 560L770 595" stroke="#FFE9F1" stroke-width="22" stroke-linecap="round"/>
  <path d="M620 300L570 265M620 300L570 335" stroke="#FFD2DF" stroke-width="22" stroke-linecap="round"/>
  <text x="850" y="365" fill="#FFF7FA" font-size="94" font-family="Verdana, Arial, sans-serif" font-weight="700" letter-spacing="6">CLAWREVERSE</text>
  <text x="854" y="455" fill="#FFD3E1" font-size="38" font-family="Verdana, Arial, sans-serif">Checkpoint, rollback, and safe branching</text>
  <text x="854" y="532" fill="#FFF0F5" font-size="30" font-family="Verdana, Arial, sans-serif">Native version control for OpenClaw</text>
</svg>
