<svg xmlns="http://www.w3.org/2000/svg" viewBox="0 0 1200 675" role="img" aria-labelledby="title desc">
  <title id="title">NaviMaster cover</title>
  <desc id="desc">Abstract illustration for a unified navigation project spanning digital interfaces and the physical world.</desc>
  <defs>
    <linearGradient id="bg" x1="0%" y1="0%" x2="100%" y2="100%">
      <stop offset="0%" stop-color="#102a43"/>
      <stop offset="100%" stop-color="#1d4ed8"/>
    </linearGradient>
    <linearGradient id="accent" x1="0%" y1="0%" x2="100%" y2="100%">
      <stop offset="0%" stop-color="#fef08a"/>
      <stop offset="100%" stop-color="#fb7185"/>
    </linearGradient>
  </defs>
  <rect width="1200" height="675" fill="url(#bg)"/>
  <path d="M0 498c134-50 264-75 390-52 153 27 226 113 380 114 125 1 252-40 430-111v226H0Z" fill="#fff" fill-opacity=".08"/>
  <rect x="118" y="112" width="336" height="224" rx="24" fill="#ffffff" fill-opacity=".12"/>
  <rect x="158" y="152" width="256" height="144" rx="16" fill="#fff" fill-opacity=".14"/>
  <path d="M532 180h500" stroke="#dbeafe" stroke-opacity=".88" stroke-linecap="round" stroke-width="18"/>
  <path d="M532 248h432" stroke="#dbeafe" stroke-opacity=".55" stroke-linecap="round" stroke-width="18"/>
  <path d="M532 316h356" stroke="#dbeafe" stroke-opacity=".36" stroke-linecap="round" stroke-width="18"/>
  <path d="M224 452c44-68 92-121 144-161 50 38 90 86 122 145-47 37-96 72-145 103-45-24-87-53-121-87Z" fill="none" stroke="url(#accent)" stroke-linejoin="round" stroke-width="22"/>
  <circle cx="368" cy="438" r="24" fill="#fef08a"/>
  <path d="M596 448h278" stroke="url(#accent)" stroke-linecap="round" stroke-width="16"/>
  <path d="M596 506h354" stroke="url(#accent)" stroke-linecap="round" stroke-opacity=".6" stroke-width="16"/>
</svg>
